<?xml version="1.0" encoding="us-ascii" standalone="no"?><svg xmlns="http://www.w3.org/2000/svg" xmlns:xlink="http://www.w3.org/1999/xlink" contentStyleType="text/css" height="682px" preserveAspectRatio="none" style="width:360px;height:682px;background:#FFFFFF;" version="1.1" viewBox="0 0 360 682" width="360px" zoomAndPan="magnify"><defs/><g><line style="stroke:#181818;stroke-width:0.5;stroke-dasharray:5.0,5.0;" x1="30" x2="30" y1="36.2969" y2="646.6875"/><line style="stroke:#181818;stroke-width:0.5;stroke-dasharray:5.0,5.0;" x1="98" x2="98" y1="36.2969" y2="646.6875"/><line style="stroke:#181818;stroke-width:0.5;stroke-dasharray:5.0,5.0;" x1="170" x2="170" y1="36.2969" y2="646.6875"/><line style="stroke:#181818;stroke-width:0.5;stroke-dasharray:5.0,5.0;" x1="242" x2="242" y1="36.2969" y2="646.6875"/><line style="stroke:#181818;stroke-width:0.5;stroke-dasharray:5.0,5.0;" x1="310" x2="310" y1="36.2969" y2="646.6875"/><rect fill="#E2E2F0" height="30.2969" rx="2.5" ry="2.5" style="stroke:#181818;stroke-width:0.5;" width="50" x="5" y="5"/><text fill="#000000" font-family="sans-serif" font-size="14" lengthAdjust="spacing" textLength="36" x="12" y="24.9951">IDE 1</text><rect fill="#E2E2F0" height="30.2969" rx="2.5" ry="2.5" style="stroke:#181818;stroke-width:0.5;" width="66" x="65" y="5"/><text fill="#000000" font-family="sans-serif" font-size="14" lengthAdjust="spacing" textLength="52" x="72" y="24.9951">Client 1</text><rect fill="#E2E2F0" height="30.2969" rx="2.5" ry="2.5" style="stroke:#181818;stroke-width:0.5;" width="58" x="141" y="5"/><text fill="#000000" font-family="sans-serif" font-size="14" lengthAdjust="spacing" textLength="44" x="148" y="24.9951">Server</text><rect fill="#E2E2F0" height="30.2969" rx="2.5" ry="2.5" style="stroke:#181818;stroke-width:0.5;" width="66" x="209" y="5"/><text fill="#000000" font-family="sans-serif" font-size="14" lengthAdjust="spacing" textLength="52" x="216" y="24.9951">Client 2</text><rect fill="#E2E2F0" height="30.2969" rx="2.5" ry="2.5" style="stroke:#181818;stroke-width:0.5;" width="50" x="285" y="5"/><text fill="#000000" font-family="sans-serif" font-size="14" lengthAdjust="spacing" textLength="36" x="292" y="24.9951">IDE 2</text><rect fill="#E2E2F0" height="30.2969" rx="2.5" ry="2.5" style="stroke:#181818;stroke-width:0.5;" width="50" x="5" y="646.6875"/><text fill="#000000" font-family="sans-serif" font-size="14" lengthAdjust="spacing" textLength="36" x="12" y="666.6826">IDE 1</text><rect fill="#E2E2F0" height="30.2969" rx="2.5" ry="2.5" style="stroke:#181818;stroke-width:0.5;" width="66" x="65" y="646.6875"/><text fill="#000000" font-family="sans-serif" font-size="14" lengthAdjust="spacing" textLength="52" x="72" y="666.6826">Client 1</text><rect fill="#E2E2F0" height="30.2969" rx="2.5" ry="2.5" style="stroke:#181818;stroke-width:0.5;" width="58" x="141" y="646.6875"/><text fill="#000000" font-family="sans-serif" font-size="14" lengthAdjust="spacing" textLength="44" x="148" y="666.6826">Server</text><rect fill="#E2E2F0" height="30.2969" rx="2.5" ry="2.5" style="stroke:#181818;stroke-width:0.5;" width="66" x="209" y="646.6875"/><text fill="#000000" font-family="sans-serif" font-size="14" lengthAdjust="spacing" textLength="52" x="216" y="666.6826">Client 2</text><rect fill="#E2E2F0" height="30.2969" rx="2.5" ry="2.5" style="stroke:#181818;stroke-width:0.5;" width="50" x="285" y="646.6875"/><text fill="#000000" font-family="sans-serif" font-size="14" lengthAdjust="spacing" textLength="36" x="292" y="666.6826">IDE 2</text><rect fill="#EEEEEE" height="3" style="stroke:#EEEEEE;stroke-width:1.0;" width="348" x="5" y="64.8633"/><line style="stroke:#000000;stroke-width:1.0;" x1="5" x2="353" y1="64.8633" y2="64.8633"/><line style="stroke:#000000;stroke-width:1.0;" x1="5" x2="353" y1="67.8633" y2="67.8633"/><rect fill="#EEEEEE" height="23.1328" style="stroke:#000000;stroke-width:2.0;" width="151" x="103.5" y="54.2969"/><text fill="#000000" font-family="sans-serif" font-size="13" font-weight="bold" lengthAdjust="spacing" textLength="132" x="109.5" y="70.3638">IDE-Client Conflict</text><polygon fill="#181818" points="86,104.5625,96,108.5625,86,112.5625,90,108.5625" style="stroke:#181818;stroke-width:1.0;"/><line style="stroke:#181818;stroke-width:1.0;" x1="30" x2="92" y1="108.5625" y2="108.5625"/><text fill="#000000" font-family="sans-serif" font-size="13" lengthAdjust="spacing" textLength="18" x="37" y="103.4966">U1</text><polygon fill="#181818" points="41,133.6953,31,137.6953,41,141.6953,37,137.6953" style="stroke:#181818;stroke-width:1.0;"/><line style="stroke:#181818;stroke-width:1.0;stroke-dasharray:2.0,2.0;" x1="35" x2="97" y1="137.6953" y2="137.6953"/><text fill="#000000" font-family="sans-serif" font-size="13" lengthAdjust="spacing" textLength="22" x="47" y="132.6294">ack</text><polygon fill="#181818" points="158,162.8281,168,166.8281,158,170.8281,162,166.8281" style="stroke:#181818;stroke-width:1.0;"/><line style="stroke:#181818;stroke-width:1.0;" x1="98" x2="164" y1="166.8281" y2="166.8281"/><text fill="#000000" font-family="sans-serif" font-size="13" lengthAdjust="spacing" textLength="18" x="105" y="161.7622">U1</text><polygon fill="#181818" points="109,191.9609,99,195.9609,109,199.9609,105,195.9609" style="stroke:#181818;stroke-width:1.0;"/><line style="stroke:#181818;stroke-width:1.0;stroke-dasharray:2.0,2.0;" x1="103" x2="169" y1="195.9609" y2="195.9609"/><text fill="#000000" font-family="sans-serif" font-size="13" lengthAdjust="spacing" textLength="22" x="115" y="190.895">ack</text><polygon fill="#181818" points="230,221.0938,240,225.0938,230,229.0938,234,225.0938" style="stroke:#181818;stroke-width:1.0;"/><line style="stroke:#181818;stroke-width:1.0;" x1="170" x2="236" y1="225.0938" y2="225.0938"/><text fill="#000000" font-family="sans-serif" font-size="13" lengthAdjust="spacing" textLength="18" x="177" y="220.0278">U1</text><polygon fill="#181818" points="300.4654,291.6633,308,299.3594,297.2363,298.9826,302.5105,296.9375" style="stroke:#181818;stroke-width:1.0;"/><line style="stroke:#181818;stroke-width:1.0;" x1="242" x2="308" y1="269.3594" y2="299.3594"/><text fill="#000000" font-family="sans-serif" font-size="13" lengthAdjust="spacing" textLength="18" x="249" y="249.1606">U1</text><text fill="#000000" font-family="sans-serif" font-size="13" lengthAdjust="spacing" textLength="4" x="249" y="264.2935">&#160;</text><polygon fill="#181818" points="250.5346,291.6633,243,299.3594,253.7637,298.9826,248.4895,296.9375" style="stroke:#181818;stroke-width:1.0;"/><line style="stroke:#181818;stroke-width:1.0;" x1="309" x2="242" y1="269.3594" y2="299.3594"/><text fill="#000000" font-family="sans-serif" font-size="13" lengthAdjust="spacing" textLength="18" x="259" y="264.2935">U2</text><rect fill="#FEFFDD" height="23" style="stroke:#181818;stroke-width:0.5;" width="58" x="213" y="342.3594"/><text fill="#000000" font-family="sans-serif" font-size="13" lengthAdjust="spacing" textLength="50" x="217" y="358.4263">calc U1'</text><rect fill="#FEFFDD" height="23" style="stroke:#181818;stroke-width:0.5;" width="76" x="272" y="342.3594"/><text fill="#000000" font-family="sans-serif" font-size="13" lengthAdjust="spacing" textLength="68" x="276" y="358.4263">discard U1</text><polygon fill="#181818" points="298,387.625,308,391.625,298,395.625,302,391.625" style="stroke:#181818;stroke-width:1.0;"/><line style="stroke:#181818;stroke-width:1.0;stroke-dasharray:2.0,2.0;" x1="242" x2="304" y1="391.625" y2="391.625"/><text fill="#000000" font-family="sans-serif" font-size="13" lengthAdjust="spacing" textLength="22" x="249" y="386.5591">ack</text><polygon fill="#181818" points="298,416.7578,308,420.7578,298,424.7578,302,420.7578" style="stroke:#181818;stroke-width:1.0;"/><line style="stroke:#181818;stroke-width:1.0;" x1="242" x2="304" y1="420.7578" y2="420.7578"/><text fill="#000000" font-family="sans-serif" font-size="13" lengthAdjust="spacing" textLength="21" x="249" y="415.6919">U1'</text><rect fill="#FEFFDD" height="23" style="stroke:#181818;stroke-width:0.5;" width="58" x="213" y="433.7578"/><text fill="#000000" font-family="sans-serif" font-size="13" lengthAdjust="spacing" textLength="50" x="217" y="449.8247">calc U2'</text><polygon fill="#181818" points="181,479.0234,171,483.0234,181,487.0234,177,483.0234" style="stroke:#181818;stroke-width:1.0;"/><line style="stroke:#181818;stroke-width:1.0;" x1="175" x2="241" y1="483.0234" y2="483.0234"/><text fill="#000000" font-family="sans-serif" font-size="13" lengthAdjust="spacing" textLength="21" x="187" y="477.9575">U2'</text><polygon fill="#181818" points="230,508.1563,240,512.1563,230,516.1563,234,512.1563" style="stroke:#181818;stroke-width:1.0;"/><line style="stroke:#181818;stroke-width:1.0;stroke-dasharray:2.0,2.0;" x1="170" x2="236" y1="512.1563" y2="512.1563"/><text fill="#000000" font-family="sans-serif" font-size="13" lengthAdjust="spacing" textLength="22" x="177" y="507.0903">ack</text><polygon fill="#181818" points="109,537.2891,99,541.2891,109,545.2891,105,541.2891" style="stroke:#181818;stroke-width:1.0;"/><line style="stroke:#181818;stroke-width:1.0;" x1="103" x2="169" y1="541.2891" y2="541.2891"/><text fill="#000000" font-family="sans-serif" font-size="13" lengthAdjust="spacing" textLength="21" x="115" y="536.2231">U2'</text><polygon fill="#181818" points="41,566.4219,31,570.4219,41,574.4219,37,570.4219" style="stroke:#181818;stroke-width:1.0;"/><line style="stroke:#181818;stroke-width:1.0;" x1="35" x2="97" y1="570.4219" y2="570.4219"/><text fill="#000000" font-family="sans-serif" font-size="13" lengthAdjust="spacing" textLength="21" x="47" y="565.356">U2'</text><polygon fill="#181818" points="253,595.5547,243,599.5547,253,603.5547,249,599.5547" style="stroke:#181818;stroke-width:1.0;"/><line style="stroke:#181818;stroke-width:1.0;stroke-dasharray:2.0,2.0;" x1="247" x2="309" y1="599.5547" y2="599.5547"/><text fill="#000000" font-family="sans-serif" font-size="13" lengthAdjust="spacing" textLength="22" x="259" y="594.4888">ack</text><polygon fill="#181818" points="86,624.6875,96,628.6875,86,632.6875,90,628.6875" style="stroke:#181818;stroke-width:1.0;"/><line style="stroke:#181818;stroke-width:1.0;stroke-dasharray:2.0,2.0;" x1="30" x2="92" y1="628.6875" y2="628.6875"/><text fill="#000000" font-family="sans-serif" font-size="13" lengthAdjust="spacing" textLength="22" x="37" y="623.6216">ack</text><!--SRC=[TL0nZi8m4Ept5Gi5EGfBPAz3IXgWe4RNNMCv1baNaiWn5FVwizSs8UAeifdPySpiOh3oSfNeTF-Bpjuqm22jCyeCidEuFEuFM2vHZcWQNSwvNMkq_qPQjMPEdxIzQnkeqK__AYahwTMKiYa1L1LwI2JLhk_EhL4EgmeWf49HiprkyQi4deI7cDgYL3y9gpb9tE99JCAm5J66A6u1ZwB- -DoiEGl3tnsiubzYie30ThtJs8VY2LIoLLvJUCaJcTvgpAYaRL9ioh5fYXqy9kVYhG4LZ-rSqaFFBUcrPPdMyddInG8KwysLyTQpc_q1]--></g></svg>